FILE "Frankenstein (1994)(Sony)(US).img" BINARY
  TRACK 01 MODE1/2352
    INDEX 01 00:00:00
  TRACK 02 AUDIO
    PREGAP 00:02:00
    INDEX 01 10:06:53
  TRACK 03 AUDIO
    INDEX 00 12:58:22
    INDEX 01 13:00:22
  TRACK 04 AUDIO
    INDEX 00 15:16:55
    INDEX 01 15:18:55
  TRACK 05 AUDIO
    INDEX 00 17:15:58
    INDEX 01 17:17:58
  TRACK 06 AUDIO
    INDEX 00 20:04:02
    INDEX 01 20:06:02
  TRACK 07 AUDIO
    INDEX 00 21:53:36
    INDEX 01 21:55:36
